<?xml version="1.0" encoding="utf-8"?>
<svg version="1.1" id="Layer_1" xmlns="http://www.w3.org/2000/svg" xmlns:xlink="http://www.w3.org/1999/xlink" x="0px"
     y="0px"
     width="109px" height="17px" viewBox="33 4 109 17" enable-background="new 33 4 109 17" xml:space="preserve">
<title>logo-neufund</title>
  <g id="Page-1">
	<g id="Menus_x2F_Navbar_x2F_Desktop_x2F_Dark-mode-Copy" transform="translate(-32.000000, -36.000000)">
		<g id="logo-neufund" transform="translate(32.000000, 32.000000)">
			<g id="Wordmark" transform="translate(33.000000, 8.000000)">
				<path id="Fill-1" fill="#FFFFFF" d="M11.347,11.415c0,0.71,0.124,1.886,0.124,1.886s-0.691-0.979-1.16-1.543L0.296,0H0v16.828
					h1.678V5.585c0-0.71-0.148-1.886-0.148-1.886s0.691,0.98,1.159,1.543L12.704,17H13V0.171h-1.653V11.415z"/>
        <path id="Fill-3" fill="#FFFFFF" d="M99.902,15.375h-2.146V1.625h2.146c4.902,0,7.244,2.825,7.244,6.875
					S104.805,15.375,99.902,15.375 M100.024,0H96v17h4.024c5.562,0,8.976-3.35,8.976-8.5C109,3.35,105.561,0,100.024,0"/>
        <polygon id="Fill-5" fill="#FFFFFF" points="48,17 49.76,17 49.76,11.225 57.242,11.225 57.242,9.574 49.76,9.574 49.76,1.6
					58,1.6 58,0 48,0 				"/>
        <path id="Fill-7" fill="#FFFFFF" d="M71.229,10.946c0,2.99-1.647,4.473-4.229,4.473c-2.606,0-4.229-1.482-4.229-4.473V0H61
					v11.07c0,3.928,2.582,5.93,6,5.93c3.394,0,6-2.002,6-5.93V0h-1.771V10.946z"/>
        <path id="Fill-9" fill="#FFFFFF" d="M89.348,11.415c0,0.71,0.123,1.886,0.123,1.886s-0.691-0.979-1.16-1.543L78.296,0H78v16.828
					h1.678V5.585c0-0.709-0.148-1.883-0.148-1.886c0.002,0.003,0.691,0.98,1.159,1.543L90.704,17H91V0.171h-1.652V11.415z"/>
        <polygon id="Fill-11" fill="#FFFFFF" points="18.682,11.15 25.809,11.15 25.809,9.575 18.682,9.575 18.682,1.6 26.673,1.6
					26.673,0 17,0 17,17 27,17 27,15.4 18.682,15.4 				"/>
        <path id="Fill-13" fill="#FFFFFF" d="M41.229,10.946c0,2.99-1.647,4.473-4.229,4.473c-2.606,0-4.229-1.482-4.229-4.473V0H31
					v11.07c0,3.928,2.582,5.93,6,5.93c3.394,0,6-2.002,6-5.93V0h-1.771V10.946z"/>
			</g>
		</g>
	</g>
</g>
</svg>
