<?xml version="1.0" encoding="utf-8"?>
<svg version="1.1" id="Layer_1" xmlns="http://www.w3.org/2000/svg" xmlns:xlink="http://www.w3.org/1999/xlink" x="0px" y="0px"
     width="21.926px" height="24.83px" viewBox="0 0 21.926 24.83" enable-background="new 0 0 21.926 24.83" xml:space="preserve">
<title>logo-neufund</title>
  <g id="Page-1">
	<g id="Menus_x2F_Navbar_x2F_Desktop_x2F_Dark-mode-Copy" transform="translate(-32.000000, -36.000000)">
		<g id="logo-neufund" transform="translate(32.000000, 32.000000)">
			<path id="Brandmark" fill="#FFFFFF" d="M20.876,22.027l-3.815,2.16V8.642l3.815,2.16v5.613V22.027z M16.135,23.75L5.785,8.121
				l0.222-0.126l4.957-2.807l4.957,2.807l0.215,0.123V23.75z M10.963,27.641l-4.957-2.807l-0.333-0.188V9.62l10.123,15.284
				L10.963,27.641z M4.748,24.121L1.05,22.027v-5.613v-5.613l3.698-2.094V24.121z M16.445,7.104L10.963,4L5.482,7.104L0,10.207
				l0,6.208l0,6.208l5.482,3.104l5.481,3.104l5.481-3.104l5.481-3.104v-6.208v-6.208L16.445,7.104z"/>
		</g>
	</g>
</g>
</svg>
